<?xml version="1.0"?>
<svg xmlns="http://www.w3.org/2000/svg" xmlns:xlink="http://www.w3.org/1999/xlink" version="1.1" id="Layer_1" x="0px" y="0px" viewBox="0 0 512 512" style="enable-background:new 0 0 512 512;" xml:space="preserve" width="512px" height="512px" class="hovered-paths"><g><g>
	<g>
		<path d="M334.232,34.102H244.38c-4.71,0-8.526,3.817-8.526,8.526s3.816,8.526,8.526,8.526h81.327v162.219H186.295V51.153h24.037    c4.71,0,8.526-3.817,8.526-8.526s-3.816-8.526-8.526-8.526h-32.563c-4.71,0-8.526,3.817-8.526,8.526v179.271    c0,4.708,3.816,8.526,8.526,8.526h156.463c4.709,0,8.526-3.817,8.526-8.526V42.628C342.758,37.919,338.942,34.102,334.232,34.102z    " data-original="#000000" class="active-path" data-old_color="#000000" fill="#9BE7FF"/>
	</g>
</g><g>
	<g>
		<path d="M334.232,281.577h-26.979c-4.709,0-8.526,3.817-8.526,8.526s3.816,8.526,8.526,8.526h18.454v162.22H186.295v-162.22    h81.821c4.71,0,8.526-3.817,8.526-8.526s-3.816-8.526-8.526-8.526h-90.347c-4.709,0-8.526,3.817-8.526,8.526v179.271    c0,4.707,3.816,8.524,8.526,8.524h156.463c4.709,0,8.526-3.817,8.526-8.526v-179.27    C342.758,285.394,338.942,281.577,334.232,281.577z" data-original="#000000" class="active-path" data-old_color="#000000" fill="#9BE7FF"/>
	</g>
</g><g>
	<g>
		<path d="M422.897,0h-54.558h-0.006H143.668c0,0-0.003,0-0.006,0H89.103c-4.709,0-8.526,3.817-8.526,8.526v494.949    c0,4.708,3.816,8.526,8.526,8.526h54.563h224.666h54.563c4.71,0,8.526-3.817,8.526-8.526V8.526C431.422,3.817,427.606,0,422.897,0    z M135.141,494.949H97.629v-37.943h37.512V494.949z M135.141,439.955H97.629v-37.943h37.512V439.955z M135.141,384.96H97.629    v-37.943h37.512V384.96z M135.141,329.966H97.629v-37.943h37.512V329.966z M135.141,274.972H97.629v-37.943h37.512V274.972z     M135.141,219.977H97.629v-37.943h37.512V219.977z M135.141,164.983H97.629V127.04h37.512V164.983z M135.141,109.989H97.629    V72.045h37.512V109.989z M135.141,54.994H97.629V17.051h37.512V54.994z M359.809,494.949h-0.001H152.194V264.526h207.615V494.949z     M359.809,247.475h-0.001H152.194V17.051h207.615V247.475z M414.371,494.949h-37.512v-37.943h37.512V494.949z M414.371,439.955    h-37.512v-37.943h37.512V439.955z M414.371,384.96h-37.512v-37.943h37.512V384.96z M414.371,329.966h-37.512v-37.943h37.512    V329.966z M414.371,274.972h-37.512v-18.971V237.03h37.512V274.972z M414.371,219.977h-37.512v-37.943h37.512V219.977z     M414.371,164.983h-37.512V127.04h37.512V164.983z M414.371,109.989h-37.512V72.045h37.512V109.989z M414.371,54.994h-37.512    V17.051h37.512V54.994z" data-original="#000000" class="active-path" data-old_color="#000000" fill="#9BE7FF"/>
	</g>
</g></g> </svg>
