<?xml version="1.0"?>
<svg xmlns="http://www.w3.org/2000/svg" id="icons" enable-background="new 0 0 64 64" height="512px" viewBox="0 0 64 64" width="512px" class=""><g><g><path d="m63.896 52.074c-.011-.023-.016-.048-.028-.07l-6-10.5c-.178-.312-.51-.504-.868-.504h-6-6-6c-.358 0-.69.192-.868.504l-3.712 6.496h-4.84l-3.712-6.496c-.178-.312-.51-.504-.868-.504h-6-6-6c-.358 0-.69.192-.868.504l-6 10.5c-.176.308-.176.685 0 .992l6 10.5c.178.312.51.504.868.504h6 6 6c.358 0 .69-.192.868-.504l3.712-6.496h4.84l3.712 6.496c.178.312.51.504.868.504h6 6 6c.358 0 .69-.192.868-.504l6-10.5c.013-.022.018-.047.028-.07.014-.027.023-.055.034-.083.082-.223.082-.463 0-.686-.01-.028-.02-.055-.034-.083zm-2.619-.574h-3.697l-4.857-8.5h3.697zm-32 0h-3.697l-4.857-8.5h3.697zm-16.277 10.5h-5.42l-5.429-9.5 5.429-9.5h5.42 5.42l5.429 9.5-5.429 9.5zm11.42 0h-3.697l4.857-8.5h3.697zm7.448-9.004c.013-.022.018-.047.028-.07.014-.027.023-.055.034-.083.082-.223.082-.463 0-.686-.011-.028-.021-.056-.034-.083-.011-.023-.016-.048-.028-.07l-1.145-2.004h14.277c1.379 0 2.5 1.121 2.5 2.5s-1.121 2.5-2.5 2.5h-14.277zm13.132 9.004h-5.42l-2.856-5h8.276c2.481 0 4.5-2.019 4.5-4.5s-2.019-4.5-4.5-4.5h-8.277l2.857-5h5.42 5.42l5.429 9.5-5.429 9.5zm11.42 0h-3.697l4.857-8.5h3.697z" data-original="#000000" class="active-path" data-old_color="#000000" fill="#D50000"/><path d="m51 19c0-10.477-8.523-19-19-19s-19 8.523-19 19 8.523 19 19 19 19-8.523 19-19zm-36 0c0-9.374 7.626-17 17-17s17 7.626 17 17-7.626 17-17 17-17-7.626-17-17z" data-original="#000000" class="active-path" data-old_color="#000000" fill="#D50000"/><path d="m48 19c0-8.822-7.178-16-16-16s-16 7.178-16 16 7.178 16 16 16 16-7.178 16-16zm-30 0c0-7.72 6.28-14 14-14s14 6.28 14 14-6.28 14-14 14-14-6.28-14-14z" data-original="#000000" class="active-path" data-old_color="#000000" fill="#D50000"/><path d="m31.294 19.708 6.361 6.362c.195.195.451.293.707.293s.512-.098.707-.293c.391-.391.391-1.023 0-1.414l-6.069-6.07v-8.584c0-.553-.447-1-1-1s-1 .447-1 1v8.998c0 .13.026.26.077.382.051.123.124.234.217.326z" data-original="#000000" class="active-path" data-old_color="#000000" fill="#D50000"/></g></g> </svg>
